<svg id="visual" viewBox="0 0 900 600" width="900" height="600" xmlns="http://www.w3.org/2000/svg" xmlns:xlink="http://www.w3.org/1999/xlink" version="1.1"><rect x="0" y="0" width="900" height="600" fill="#001220"></rect><path d="M0 432L21.5 427.2C43 422.3 86 412.7 128.8 407.7C171.7 402.7 214.3 402.3 257.2 396.7C300 391 343 380 385.8 387.2C428.7 394.3 471.3 419.7 514.2 425.8C557 432 600 419 642.8 415.8C685.7 412.7 728.3 419.3 771.2 418.7C814 418 857 410 878.5 406L900 402L900 601L878.5 601C857 601 814 601 771.2 601C728.3 601 685.7 601 642.8 601C600 601 557 601 514.2 601C471.3 601 428.7 601 385.8 601C343 601 300 601 257.2 601C214.3 601 171.7 601 128.8 601C86 601 43 601 21.5 601L0 601Z" fill="#356697"></path><path d="M0 393L21.5 393.2C43 393.3 86 393.7 128.8 405C171.7 416.3 214.3 438.7 257.2 446.2C300 453.7 343 446.3 385.8 438C428.7 429.7 471.3 420.3 514.2 421.5C557 422.7 600 434.3 642.8 435.7C685.7 437 728.3 428 771.2 428C814 428 857 437 878.5 441.5L900 446L900 601L878.5 601C857 601 814 601 771.2 601C728.3 601 685.7 601 642.8 601C600 601 557 601 514.2 601C471.3 601 428.7 601 385.8 601C343 601 300 601 257.2 601C214.3 601 171.7 601 128.8 601C86 601 43 601 21.5 601L0 601Z" fill="#6a87ae"></path><path d="M0 510L21.5 503C43 496 86 482 128.8 475.2C171.7 468.3 214.3 468.7 257.2 469.8C300 471 343 473 385.8 476.3C428.7 479.7 471.3 484.3 514.2 478.2C557 472 600 455 642.8 454.8C685.7 454.7 728.3 471.3 771.2 482C814 492.7 857 497.3 878.5 499.7L900 502L900 601L878.5 601C857 601 814 601 771.2 601C728.3 601 685.7 601 642.8 601C600 601 557 601 514.2 601C471.3 601 428.7 601 385.8 601C343 601 300 601 257.2 601C214.3 601 171.7 601 128.8 601C86 601 43 601 21.5 601L0 601Z" fill="#99aac5"></path><path d="M0 526L21.5 518.7C43 511.3 86 496.7 128.8 496.5C171.7 496.3 214.3 510.7 257.2 513.5C300 516.3 343 507.7 385.8 503C428.7 498.3 471.3 497.7 514.2 500.8C557 504 600 511 642.8 517.3C685.7 523.7 728.3 529.3 771.2 524.5C814 519.7 857 504.3 878.5 496.7L900 489L900 601L878.5 601C857 601 814 601 771.2 601C728.3 601 685.7 601 642.8 601C600 601 557 601 514.2 601C471.3 601 428.7 601 385.8 601C343 601 300 601 257.2 601C214.3 601 171.7 601 128.8 601C86 601 43 601 21.5 601L0 601Z" fill="#c7cfdd"></path><path d="M0 555L21.5 551.8C43 548.7 86 542.3 128.8 545.2C171.7 548 214.3 560 257.2 558.2C300 556.3 343 540.7 385.8 540.3C428.7 540 471.3 555 514.2 556.8C557 558.7 600 547.3 642.8 543.8C685.7 540.3 728.3 544.7 771.2 550C814 555.3 857 561.7 878.5 564.8L900 568L900 601L878.5 601C857 601 814 601 771.2 601C728.3 601 685.7 601 642.8 601C600 601 557 601 514.2 601C471.3 601 428.7 601 385.8 601C343 601 300 601 257.2 601C214.3 601 171.7 601 128.8 601C86 601 43 601 21.5 601L0 601Z" fill="#f5f5f5"></path></svg>