<svg id="visual" viewBox="0 0 900 600" width="900" height="600" xmlns="http://www.w3.org/2000/svg" xmlns:xlink="http://www.w3.org/1999/xlink" version="1.1"><rect x="0" y="0" width="900" height="600" fill="#001A37"></rect><path d="M0 376L9.3 377.7C18.7 379.3 37.3 382.7 56.2 377.3C75 372 94 358 112.8 357.2C131.7 356.3 150.3 368.7 169 393C187.7 417.3 206.3 453.7 225 460.8C243.7 468 262.3 446 281.2 437.3C300 428.7 319 433.3 337.8 442.7C356.7 452 375.3 466 394 468.8C412.7 471.7 431.3 463.3 450 450.2C468.7 437 487.3 419 506.2 416.2C525 413.3 544 425.7 562.8 436C581.7 446.3 600.3 454.7 619 453.8C637.7 453 656.3 443 675 432.7C693.7 422.3 712.3 411.7 731.2 421.5C750 431.3 769 461.7 787.8 455.2C806.7 448.7 825.3 405.3 844 388.7C862.7 372 881.3 382 890.7 387L900 392L900 601L890.7 601C881.3 601 862.7 601 844 601C825.3 601 806.7 601 787.8 601C769 601 750 601 731.2 601C712.3 601 693.7 601 675 601C656.3 601 637.7 601 619 601C600.3 601 581.7 601 562.8 601C544 601 525 601 506.2 601C487.3 601 468.7 601 450 601C431.3 601 412.7 601 394 601C375.3 601 356.7 601 337.8 601C319 601 300 601 281.2 601C262.3 601 243.7 601 225 601C206.3 601 187.7 601 169 601C150.3 601 131.7 601 112.8 601C94 601 75 601 56.2 601C37.3 601 18.7 601 9.3 601L0 601Z" fill="#356697" stroke-linecap="round" stroke-linejoin="miter"></path></svg>